<?xml version="1.0" encoding="UTF-8"?>
<svg width="40px" height="46px" viewBox="0 0 40 46" version="1.1" xmlns="http://www.w3.org/2000/svg" xmlns:xlink="http://www.w3.org/1999/xlink">
    <!-- Generator: Sketch 47.1 (45422) - http://www.bohemiancoding.com/sketch -->
    <title>Shape</title>
    <desc>Created with Sketch.</desc>
    <defs></defs>
    <g id="Page-1" stroke="none" stroke-width="1" fill="none" fill-rule="evenodd">
        <g id="1920x1080" transform="translate(-373.000000, -681.000000)" fill-rule="nonzero" fill="#FFFFFF">
            <g id="icons-accordion-copy" transform="translate(372.000000, 423.000000)">
                <g id="icons-list">
                    <path d="M40.8213606,283.686768 C40.9155124,284.862716 40.5212715,286.023286 39.744176,286.857793 L29.5486022,297.808781 C28.077974,299.375256 26.0875322,300.248925 24.0163952,300.237043 L11.4270779,300.237043 L8.23985287,303.650894 C7.95953661,303.95198 7.55096676,304.069567 7.16804762,303.959362 C6.78512849,303.849157 6.48603459,303.527903 6.38343172,303.116612 C6.28082885,302.705322 6.39030481,302.26648 6.67062107,301.965395 L10.172579,298.203969 C10.3808142,297.980868 10.6630773,297.85583 10.9571949,297.856394 L24.0163952,297.856394 C25.5133178,297.863092 26.9502969,297.225134 28.0059675,296.085191 L38.2015414,285.134203 C38.7597939,284.494936 38.7449016,283.495155 38.167895,282.875396 C37.5908885,282.255638 36.6600736,282.239642 36.0649037,282.839257 L28.0192661,291.571479 L27.992669,291.595286 C27.30004,292.332402 26.365611,292.747888 25.3905812,292.752281 L17.6109151,292.752281 C16.9988651,292.752281 16.5027005,292.219355 16.5027005,291.561957 C16.5027005,290.904558 16.9988651,290.371632 17.6109151,290.371632 L25.3950141,290.371632 C26.0966107,290.368029 26.7030996,289.844915 26.8578573,289.109888 C26.9559519,288.633558 26.8475894,288.135147 26.563228,287.754747 C26.2788665,287.374347 25.8492059,287.153027 25.3950141,287.152994 L11.9678866,287.152994 C10.7255345,287.149087 9.53328559,287.678807 8.65654154,288.624235 L6.69721822,290.723968 C6.42593162,291.063239 6.00048592,291.21055 5.59579683,291.105336 C5.19110774,291.000122 4.87547576,290.660141 4.77866831,290.225171 C4.68186087,289.790201 4.82021643,289.333653 5.13685214,289.04323 L7.09617546,286.943497 C8.38646288,285.549505 10.14224,284.767728 11.9723195,284.772344 L25.3950141,284.772344 C26.8984728,284.767442 28.2542067,285.743254 28.8216134,287.238697 L34.4690748,281.172803 C35.4973293,280.068464 37.0295531,279.707064 38.393986,280.247049 C39.758419,280.787033 40.7060279,282.129846 40.8213606,283.686768 Z M31.6470813,268.641384 C31.3738382,267.893528 30.8242025,267.300403 30.1287332,267.002899 L27.2740612,265.793088 L26.723549,262.554223 C26.5894297,261.762693 26.1544468,261.06669 25.5228483,260.63302 C24.8912498,260.19935 24.1199643,260.0671 23.3938383,260.267966 L20.414857,261.072919 L18.1950499,258.800951 C17.6533332,258.246297 16.9211978,257.957994 16.1736546,258.004958 C15.4261114,258.051922 14.7303449,258.429932 14.2526724,259.048629 L12.2992421,261.587327 L9.25810625,261.149128 C8.51515091,261.041766 7.76404215,261.270721 7.18469763,261.78115 C6.60535311,262.291579 6.24996139,263.037502 6.2036516,263.840243 L6.01274818,267.126738 L3.30458345,268.689014 C2.65206795,269.071419 2.17547342,269.725651 1.98724487,270.497354 C1.79901632,271.269056 1.91582431,272.089883 2.31010984,272.766173 L3.95720675,275.547786 L2.62532245,278.515158 C2.30050438,279.240243 2.27146054,280.077612 2.5451512,280.826592 C2.81884186,281.575571 3.37059958,282.168656 4.06819711,282.463715 L7.49557937,283.916441 C7.8643526,284.072994 8.28296222,284.006586 8.59372202,283.74223 C8.90448182,283.477874 9.06018,283.055733 9.00216655,282.634824 C8.9441531,282.213914 8.68124165,281.858183 8.3124684,281.701629 L4.88508614,280.248903 C4.76125848,280.196717 4.66320741,280.091681 4.61437911,279.958911 C4.56555081,279.826141 4.5703353,279.677574 4.62758851,279.548737 L6.22141006,275.985986 C6.38731424,275.615968 6.36382465,275.180355 6.15925546,274.833331 L4.18362708,271.499205 C4.11224309,271.378597 4.09082761,271.231571 4.12451068,271.093347 C4.15819376,270.955124 4.24394097,270.838155 4.36121165,270.770461 L7.60656972,268.893825 C7.93856608,268.702766 8.15755792,268.344071 8.1881592,267.941217 L8.41901915,263.997423 C8.42617547,263.854513 8.48901064,263.721416 8.5921641,263.63067 C8.69401293,263.537602 8.82822381,263.495967 8.96065209,263.516357 L12.6144547,264.045054 C12.9941155,264.102283 13.3741883,263.943509 13.6178075,263.625907 L15.9663635,260.577563 C16.0513829,260.467421 16.175302,260.40022 16.3083833,260.392087 C16.4414646,260.383954 16.5716951,260.435624 16.6678226,260.534696 L19.3315912,263.263916 C19.6088102,263.548424 20.0036986,263.658394 20.3749005,263.554461 L23.926592,262.568513 C24.0552658,262.533154 24.1918461,262.556645 24.3037688,262.633385 C24.4156916,262.710126 24.4929271,262.833239 24.5170607,262.973371 L25.2096405,266.855245 C25.2778864,267.260483 25.53645,267.599127 25.8933411,267.750696 L29.3207234,269.203422 C29.4417866,269.260154 29.5356682,269.36796 29.5802074,269.501395 C29.6247467,269.634829 29.6159967,269.782066 29.5560229,269.908351 L27.9622014,273.471102 C27.7962972,273.84112 27.8197868,274.276733 28.024356,274.623757 L29.9999844,277.957883 C30.0713684,278.078491 30.0927838,278.225517 30.0591008,278.363741 C30.0254177,278.501964 29.9396705,278.618933 29.8223998,278.686627 L26.5770417,280.563263 C26.2151809,280.757388 25.9804415,281.147378 25.9644017,281.581088 C25.948362,282.014798 26.1535632,282.423515 26.4999507,282.647788 C26.8463382,282.87206 27.2790335,282.876356 27.6292303,282.658999 L30.8745884,280.782363 C31.5321897,280.400188 32.0125225,279.742434 32.2010315,278.965971 C32.3895405,278.189507 32.2693274,277.363937 31.869062,276.686152 L30.2219651,273.904539 L31.5538494,270.937167 C31.8785986,270.212811 31.9091371,269.376487 31.6382021,268.627095 L31.6470813,268.641384 Z M17.5573533,279.699822 C16.7343735,279.701218 15.9916268,279.194632 15.675516,278.416326 C15.5198725,278.03749 15.1787373,277.772481 14.7806127,277.721128 C14.3824881,277.669774 13.9878587,277.839878 13.7453776,278.167361 C13.5028965,278.494845 13.4494023,278.929956 13.6050458,279.308793 C14.2708811,280.941187 15.8301693,282.002936 17.5573533,281.999994 C20.0005979,281.999994 21.8420139,280.228862 21.8420139,277.859685 C21.8420139,276.691198 21.3210279,274.607242 17.8492851,273.77918 L17.813355,273.77918 C15.5228132,273.245541 15.5228132,272.256467 15.5228132,271.939043 C15.5228132,270.69235 16.578259,270.098906 17.5618446,270.098906 C18.3837347,270.096737 19.1261763,270.6013 19.4436819,271.377801 C19.5902082,271.769221 19.9330525,272.047974 20.3384719,272.10532 C20.7438914,272.162666 21.1476607,271.98952 21.3922704,271.653426 C21.63688,271.317333 21.6835797,270.871534 21.514152,270.489935 C21.0036346,269.243805 19.9590138,268.309685 18.6846592,267.959746 L18.6846592,267.150086 C18.6846592,266.514911 18.181958,266 17.5618446,266 C16.9417312,266 16.4390299,266.514911 16.4390299,267.150086 L16.4390299,267.973547 C14.6033322,268.370071 13.2909341,270.03121 13.295149,271.952844 C13.295149,273.121331 13.816135,275.205287 17.2878778,276.033349 L17.3238079,276.033349 C19.6143497,276.571589 19.6143497,277.556062 19.6143497,277.873486 C19.5874021,279.13858 18.5319564,279.704423 17.5483708,279.704423 L17.5573533,279.699822 Z" id="Shape"></path>
                </g>
            </g>
        </g>
    </g>
</svg>