<?xml version="1.0" encoding="UTF-8"?>
<svg width="40px" height="43px" viewBox="0 0 40 43" version="1.1" xmlns="http://www.w3.org/2000/svg" xmlns:xlink="http://www.w3.org/1999/xlink">
    <!-- Generator: Sketch 47.1 (45422) - http://www.bohemiancoding.com/sketch -->
    <title>Shape</title>
    <desc>Created with Sketch.</desc>
    <defs></defs>
    <g id="Page-1" stroke="none" stroke-width="1" fill="none" fill-rule="evenodd">
        <g id="1920x1080" transform="translate(-372.000000, -604.000000)" fill-rule="nonzero" fill="#FFFFFF">
            <g id="icons-accordion-copy" transform="translate(372.000000, 423.000000)">
                <g id="icons-list">
                    <g id="noun_1197967_cc" transform="translate(0.000000, 181.000000)">
                        <g id="Group">
                            <path d="M37.8302967,2.50163529 L14.2183847,0.0129089632 C12.9801469,-0.122839745 11.8700028,0.827401214 11.7419092,2.13963873 L11.4003264,5.66910515 L2.26298615,5.66910515 C1.02474844,5.66910515 0,6.75509482 0,8.06733234 L0,40.6017728 C0,41.9140103 1.02474844,43 2.26298615,43 L26.0029918,43 C27.2412295,43 28.2659779,41.9140103 28.2659779,40.6017728 L28.2659779,38.9727883 L34.3717707,39.6062823 C35.6100084,39.742031 36.7201526,38.79179 36.8482461,37.4795525 L39.8797936,5.12611032 C39.9651893,3.8138728 39.0685344,2.63738399 37.8302967,2.50163529 Z M25.640625,40 L1.89930556,40 L1.89930556,8 L25.640625,8 L25.640625,40 Z M34.0954331,37 L27.8297707,36.3164062 L27.8297707,32.5794271 L30.6855488,32.8984375 L30.8986666,30.4375 L27.8297707,30.1184896 L27.8297707,26.8828125 L31.1970315,27.2473958 L31.4101492,24.7864583 L27.7871472,24.421875 L27.7871472,21.1861979 L31.7085141,21.5963542 L31.9216319,19.1354167 L27.7871472,18.6796875 L27.7871472,15.4440104 L32.2199968,15.8997396 L32.4331145,13.4388021 L27.7871472,12.9375 L27.7871472,9.70182292 L32.7314794,10.2486979 L32.9445972,7.78776042 L27.7445236,7.24088542 C27.5740294,6.1015625 26.6363112,5.23567708 25.5280988,5.23567708 L13.2951389,5.23567708 L13.5935038,2 L37.0364583,4.50651042 L34.0954331,37 Z M5.69791667,34 L21.8420139,34 L21.8420139,36 L5.69791667,36 L5.69791667,34 Z M5.69791667,29 L21.8420139,29 L21.8420139,31 L5.69791667,31 L5.69791667,29 Z M5.69791667,23 L21.8420139,23 L21.8420139,25 L5.69791667,25 L5.69791667,23 Z M5.69791667,18 L21.8420139,18 L21.8420139,20 L5.69791667,20 L5.69791667,18 Z M5.69791667,12 L21.8420139,12 L21.8420139,14 L5.69791667,14 L5.69791667,12 Z" id="Shape"></path>
                        </g>
                    </g>
                </g>
            </g>
        </g>
    </g>
</svg>