<?xml version="1.0" encoding="UTF-8"?>
<svg width="29px" height="44px" viewBox="0 0 29 44" version="1.1" xmlns="http://www.w3.org/2000/svg" xmlns:xlink="http://www.w3.org/1999/xlink">
    <!-- Generator: Sketch 47.1 (45422) - http://www.bohemiancoding.com/sketch -->
    <title>Shape</title>
    <desc>Created with Sketch.</desc>
    <defs></defs>
    <g id="Page-1" stroke="none" stroke-width="1" fill="none" fill-rule="evenodd">
        <g id="1920x1080" transform="translate(-374.000000, -422.000000)" fill-rule="nonzero" stroke="#FFFFFF" fill="#FFFFFF">
            <g id="icons-accordion-copy" transform="translate(372.000000, 423.000000)">
                <g id="icons-list">
                    <g id="noun_594640_cc" transform="translate(2.848958, 0.000000)">
                        <path d="M26.8573177,0 L0.681703948,0 C0.305403369,0 0,0.320726642 0,0.715907684 L0,36.0092019 C0,36.404383 0.305403369,36.7251096 0.681703948,36.7251096 L13.2482345,36.7251096 L13.2482345,41.2840098 C13.2482345,41.5441229 13.382303,41.783236 13.5986304,41.9097131 C13.7022494,41.9698493 13.8163211,41.9999174 13.9303929,41.9999174 C14.0549175,41.9999174 14.1798966,41.9641221 14.2898782,41.892054 L16.9876079,40.1337847 L19.6848832,41.892054 C19.895757,42.0295083 20.1598036,42.0361901 20.376131,41.9092358 C20.5924584,41.7827588 20.7265268,41.5436456 20.7265268,41.2835325 L20.7265268,36.7246324 L26.8582266,36.7246324 C27.2345272,36.7246324 27.5399306,36.4039057 27.5399306,36.0087247 L27.5399306,0.715907684 C27.5390216,0.320726642 27.2336182,0 26.8573177,0 Z M13.0648714,28.5712133 L12.3454861,28.1129427 L12.8001486,27.3791447 C12.9432916,27.147419 12.9432916,26.851639 12.8001486,26.6203843 L12.3454861,25.8870573 L13.0648714,25.4287867 C13.2915144,25.2841937 13.4167645,25.0180859 13.3851079,24.7453843 L13.2855501,23.8820648 L14.1274328,23.7897513 C14.3930731,23.7605501 14.6183398,23.5763941 14.7055102,23.3168802 L14.9807852,22.4945365 L15.778165,22.7865486 C16.0309592,22.8783911 16.3108221,22.8129239 16.4984679,22.6179352 L17.0939794,22 L17.6894909,22.6179352 C17.8771367,22.8129239 18.1579172,22.8783911 18.4097938,22.7865486 L19.2067148,22.4950075 L19.4819898,23.3168802 C19.5687014,23.5763941 19.7944269,23.7605501 20.0600672,23.7897513 L20.9019499,23.8820648 L20.8023921,24.7453843 C20.7711942,25.0180859 20.8959856,25.2846647 21.1226286,25.4287867 L21.8420139,25.8870573 L21.3873514,26.6203843 C21.2442084,26.851639 21.2442084,27.147419 21.3873514,27.3791447 L21.8420139,28.1129427 L21.1226286,28.5712133 C20.8959856,28.7158063 20.7707355,28.9819141 20.8023921,29.2546157 L20.9019499,30.1179352 L20.0600672,30.2102487 C19.7944269,30.2394499 19.5691602,30.4236059 19.4819898,30.6831198 L19.2067148,31.5049925 L18.409335,31.2134514 C18.1592935,31.1216089 17.8771367,31.1866051 17.6894909,31.3820648 L17.0939794,32 L16.4984679,31.3820648 C16.3672535,31.2454785 16.1897011,31.1724755 16.009396,31.1724755 C15.9318602,31.1724755 15.8538656,31.1856631 15.7786238,31.2134514 L14.9807852,31.5049925 L14.7055102,30.6831198 C14.703675,30.677468 14.6995459,30.6727581 14.697252,30.6671063 C14.6770651,30.6110588 14.6513728,30.5583082 14.6187986,30.5102675 C14.6137519,30.5022607 14.60687,30.4961379 14.6013645,30.4886021 C14.5720019,30.4485682 14.5380513,30.4123022 14.5008891,30.3793331 C14.4894194,30.3694424 14.4788672,30.3595516 14.4669386,30.3501319 C14.4215182,30.3148078 14.3724275,30.2837227 14.3192077,30.2606443 C14.3173725,30.2597023 14.3150785,30.2597023 14.3127846,30.2587604 C14.2613999,30.237095 14.2063449,30.2243783 14.1499136,30.2159005 C14.1421141,30.2149586 14.135691,30.2111907 14.1283504,30.2102487 L13.2864677,30.1179352 L13.3860255,29.2546157 C13.4167645,28.9819141 13.2915144,28.7158063 13.0648714,28.5712133 Z M18.9930556,40 L16.9784616,38.6288865 C16.7586052,38.4789755 16.4796963,38.4789755 16.2598398,38.6288865 L14.2447917,40 L14.2447917,33.4143721 C14.2593276,33.4098897 14.2738636,33.4083956 14.2883996,33.4024191 L15.3195446,33 L16.088588,33.8526503 C16.2162319,33.9945927 16.3911178,34.0742796 16.5728173,34.0742796 C16.7545169,34.0742796 16.9294027,33.9945927 17.0570467,33.8526503 L17.8260901,33 L18.8567809,33.4024191 C18.9012973,33.4193525 18.9467222,33.4308075 18.9926013,33.4377801 L18.9926013,40 L18.9930556,40 Z M25.640625,34.9995208 L20.2172581,34.9995208 L20.2172581,31.8088909 L21.0313058,31.7168811 C21.2113008,31.696754 21.3768239,31.6009105 21.4898861,31.4504362 C21.6029482,31.2999619 21.6545046,31.108275 21.6327967,30.9175464 L21.5048103,29.7712582 L22.4305634,29.162652 C22.584328,29.0615372 22.6937722,28.8990824 22.7340223,28.7121876 C22.7747247,28.5248136 22.7426151,28.3283344 22.6453816,28.1658797 L22.060624,27.1921098 L22.6453816,26.2188192 C22.7426151,26.0563644 22.7747247,25.8598853 22.7340223,25.6725112 C22.6937722,25.4851372 22.584328,25.3231617 22.4305634,25.2220468 L21.5048103,24.6134406 L21.6327967,23.4671525 C21.6545046,23.2764239 21.6029482,23.0842577 21.4898861,22.9342626 C21.3768239,22.7842676 21.2117531,22.6879449 21.0313058,22.6678177 L19.9481701,22.5451381 L19.5945116,21.4534807 C19.535267,21.2718572 19.4104464,21.1228206 19.2467323,21.0394368 C19.0839228,20.9565322 18.8962395,20.9464686 18.7248373,21.0097253 L17.6991371,21.3974122 L16.93348,20.5765127 C16.6793162,20.3033588 16.2234495,20.3033588 15.9688334,20.5765127 L15.2031763,21.3974122 L14.1770239,21.0097253 C14.0051694,20.9455102 13.8179384,20.9565322 13.6551289,21.0394368 C13.4918671,21.1228206 13.3665942,21.2718572 13.3073496,21.4534807 L12.9536911,22.5451381 L11.8705554,22.6678177 C11.6905604,22.6879449 11.5250373,22.7837884 11.4119751,22.9342626 C11.2989129,23.0847369 11.2473566,23.2764239 11.2690645,23.4671525 L11.3970509,24.6134406 L10.4712978,25.2220468 C10.3175332,25.3231617 10.208089,25.4856164 10.1673866,25.6725112 C10.1271365,25.8598853 10.1592461,26.0563644 10.2564796,26.2188192 L10.8412372,27.1921098 L10.2564796,28.1658797 C10.1592461,28.3283344 10.1271365,28.5248136 10.1678389,28.7121876 C10.208089,28.8995617 10.3175332,29.0615372 10.4712978,29.162652 L11.3970509,29.7712582 L11.2690645,30.9175464 C11.2473566,31.108275 11.2989129,31.3004412 11.4119751,31.4504362 C11.5250373,31.6004313 11.6901081,31.696754 11.8705554,31.7168811 L12.7764096,31.8194337 L12.7764096,35 L0.949652778,35 L0.949652778,1 L25.640625,1 L25.640625,34.9995208 Z" id="Shape"></path>
                    </g>
                </g>
            </g>
        </g>
    </g>
</svg>