<?xml version="1.0" encoding="UTF-8"?>
<svg width="40px" height="38px" viewBox="0 0 40 38" version="1.1" xmlns="http://www.w3.org/2000/svg" xmlns:xlink="http://www.w3.org/1999/xlink">
    <!-- Generator: Sketch 47.1 (45422) - http://www.bohemiancoding.com/sketch -->
    <title>Shape</title>
    <desc>Created with Sketch.</desc>
    <defs></defs>
    <g id="Page-1" stroke="none" stroke-width="1" fill="none" fill-rule="evenodd">
        <g id="1920x1080" transform="translate(-372.000000, -760.000000)" fill-rule="nonzero" stroke="#FFFFFF" fill="#FFFFFF">
            <g id="icons-accordion-copy" transform="translate(372.000000, 423.000000)">
                <g id="icons-list">
                    <g id="noun_1175029_cc" transform="translate(0.949653, 338.000000)">
                        <path d="M33.1091076,21.7809713 C32.9586805,21.5484442 32.7354151,21.374049 32.4820643,21.2860209 C30.8527017,20.7246341 26.1910464,18.9541068 24.2054093,18.1917503 C24.3495026,17.9492578 24.4920124,17.7067653 24.6139375,17.4526465 C24.9052909,16.8430934 25.1491411,16.1837132 25.3518218,15.451253 C25.6875116,15.3449549 26.064371,15.0327043 26.4443972,14.3517322 C26.8070056,13.7039783 27.0809412,12.9416218 27.280455,11.9982264 C27.3992132,11.4534487 27.598727,10.5399496 27.0920253,9.96527566 C26.9305142,9.78257584 26.7199163,9.67959957 26.4982343,9.6413987 C26.9859347,7.06200943 27.0983591,4.15376047 25.6764275,2.63735197 C25.8379387,2.30018776 25.8474394,1.98959806 25.8141871,1.75541011 C25.6716772,0.757204731 24.6060203,0.174226214 24.3938389,0.06626723 C24.225994,-0.0200999576 24.0280637,-0.0217608651 23.8586353,0.0596236002 C23.6876235,0.141008065 23.5593646,0.298794274 23.5102779,0.488137723 C23.3899363,0.938243643 21.8698313,0.865163715 20.5286553,0.798727417 C20.0219536,0.772152898 19.4819997,0.745578379 18.9198775,0.733952027 C17.6927094,0.710699322 16.682473,0.767170176 15.7450749,0.918312754 C12.7507848,1.40163682 11.0834196,4.19860498 11.1673421,8.59170519 C11.1736758,8.97039209 11.2148453,9.33911355 11.2876837,9.69620865 C11.142007,9.7526795 11.0074143,9.83904669 10.8965733,9.96527566 C10.3898717,10.5416105 10.5909689,11.4551096 10.7287284,12.0845936 C10.9076574,12.9366391 11.181593,13.6989956 11.5457849,14.3517322 C11.9258111,15.0293825 12.3026705,15.3416331 12.6367769,15.4495921 C12.8378741,16.1787304 13.0817243,16.8381107 13.3746612,17.4509856 C13.4950028,17.7017826 13.6375127,17.9409533 13.7784391,18.1801239 C13.4712512,18.2847611 13.1513958,18.3960419 12.8093721,18.5139663 L12.3850095,18.6534825 C12.3755088,18.6568044 12.3675916,18.6667698 12.358091,18.6700916 C9.77549592,19.5736253 6.60386018,20.7329387 5.43211258,21.2528027 C5.21518093,21.3474744 5.02833469,21.5035997 4.8953255,21.7078914 C4.0941035,22.9319802 0.578860697,30.0356813 0.0104047664,34.5550105 C-0.035515072,34.9220711 0.0721590318,35.2874707 0.301758224,35.5631813 C0.532940858,35.8405529 0.867047269,36 1.21698811,36 L5.87230965,36 C6.29508885,36 6.69411642,35.7624902 6.91421495,35.3821424 C7.21665251,34.8572957 7.54917548,34.3424144 7.81677729,33.953762 C8.0542937,34.3291271 8.33456306,34.8190948 8.58949733,35.3206889 C8.80167865,35.7392375 9.21337376,36 9.66465493,36 L28.192518,36 C28.6327151,36 29.0412433,35.749203 29.255008,35.3439416 C29.533694,34.8224166 29.8392984,34.3208226 30.0926492,33.9404748 C30.3650014,34.3191617 30.6975243,34.8307212 31.0047122,35.3738379 C31.2248108,35.7575075 31.6254218,35.9983391 32.0513679,35.9983391 L36.7684437,35.9983391 C37.4398234,35.9983391 37.9861111,35.4236651 37.9861111,34.7194404 C37.9861111,34.5666369 37.9591926,34.4138334 37.9085224,34.2709953 C37.2593109,29.7500053 33.9071627,23.0083819 33.1091076,21.7809713 Z M18.0434028,23.450197 C17.4158717,23.9617333 16.5212713,24.6707935 16.0035172,25 C15.6332247,24.2234102 14.3060702,21.4715813 13.5032236,19.8086663 L13.2951389,19.3764772 L14.4551702,19 C15.4382476,20.2307259 17.2274485,22.438942 18.0434028,23.450197 Z M23.5530122,19 L24.6909722,19.4171573 C24.3516946,20.1152229 23.8419664,21.1530698 23.3484716,22.1555929 C22.7478365,23.3784693 22.1731749,24.549201 21.9556476,25 C21.5238396,24.72582 20.5936669,23.9789739 19.9427083,23.4423886 L23.5530122,19 Z M15.8951435,2.6081463 C16.772912,2.47580359 17.7214165,2.42066079 18.8982051,2.44744443 C19.4560543,2.45689748 19.9930043,2.48210562 20.4945864,2.50573825 C22.2227936,2.59081571 23.6632343,2.65383605 24.3931005,2 C24.5297494,2.11658763 24.6358533,2.24262832 24.6519297,2.34346087 C24.6663984,2.43956689 24.5249265,2.57821164 24.4622288,2.63492995 C24.315934,2.76727267 24.2403752,2.95948471 24.2580592,3.15484777 C24.2757431,3.34863533 24.3850623,3.52351678 24.5538639,3.62907585 C25.3174904,4.10645495 25.592396,5.12896 25.640625,6.26017515 C24.1149797,6.37833829 22.806365,6.07111412 21.6826284,5.28020882 C21.4302297,5.10690288 21.0861959,5.12738449 20.8627347,5.33692713 C18.2840887,7.75375726 16.157188,8.37293213 12.3454861,7.80259803 C12.4387289,5.76231444 13.0962515,3.0303826 15.8951435,2.6081463 Z M12.9421948,13.5938549 C12.8083447,13.5287415 12.6555982,13.5157188 12.5138747,13.553159 C12.4571853,13.5026961 12.35168,13.3822362 12.195784,13.1055041 C11.901314,12.5862244 11.676131,11.9660189 11.5060628,11.171635 C11.4336263,10.8460678 11.397408,10.6067759 11.3958333,10.457015 C11.4068563,10.4602706 11.4163045,10.4651541 11.4257527,10.4700376 C11.6588093,10.5986367 11.9469805,10.5595686 12.1453935,10.3739953 C12.3422317,10.1900499 12.4036453,9.89541154 12.3012894,9.64309696 C12.1658646,9.30776274 12.0902787,8.94312748 12.0446123,8.57035304 C12.8650342,8.6908129 13.6350655,8.76894903 14.3358097,8.76894903 C16.9041554,8.76894903 18.7875039,7.92898565 20.8472195,6 C22.0550191,6.75857157 23.4517835,7.06786041 25.0012943,6.96205107 C24.9131108,8.09176925 24.697376,9.18893072 24.5336066,9.88564452 C24.4643195,10.1802828 24.5839972,10.4928273 24.8453984,10.6279377 C25.1067996,10.764676 25.4091432,10.7011904 25.5965332,10.4651541 C25.6075562,10.4586428 25.6233032,10.4521314 25.640625,10.4456201 C25.640625,10.6702615 25.5571656,11.0462916 25.5099244,11.2611659 C25.3587526,11.9660189 25.1335696,12.5845966 24.8406743,13.1038763 C24.6847784,13.3806084 24.5792731,13.5010683 24.5225836,13.5515312 C24.3808601,13.514091 24.2296883,13.523858 24.0942636,13.5905992 C23.9226206,13.6736189 23.7966441,13.8298911 23.7509776,14.0219758 C23.5478406,14.8521721 23.2958876,15.56842 22.982521,16.2162987 C22.8423722,16.5076814 22.6849016,16.7909248 22.5085345,17.0611456 C22.4644427,17.1295147 22.3998798,17.2011395 22.3400409,17.2727643 L22.1746968,17.4778716 C22.1746968,17.4778716 22.1746968,17.4794994 22.1746968,17.4794994 L18.4914592,22 L14.9735657,17.6260047 C14.934198,17.5755418 14.880658,17.5104283 14.8460145,17.4648489 C14.8444398,17.4632211 14.8428651,17.4632211 14.8412903,17.4615932 L14.7137392,17.3020653 C14.6491762,17.2223014 14.5798891,17.1392817 14.5294985,17.0627734 C14.3547062,16.7925527 14.1956608,16.5093092 14.055512,16.2195544 C13.7405708,15.56842 13.4886178,14.8489165 13.2870554,14.0236036 C13.2398142,13.8347746 13.1138377,13.6752467 12.9421948,13.5938549 Z M7.79457275,32.6079055 C7.6755441,32.4750114 7.50704901,32.3778964 7.34319139,32.403453 C7.1746963,32.4068605 7.01393034,32.485234 6.89799335,32.6232394 C6.61356126,32.9588823 5.93185175,34.0067015 5.44646221,34.940368 L0.949652778,35 C1.46750467,30.6741254 4.87296056,23.4399137 5.49129118,22.4346888 C6.54399907,21.9440027 9.2940245,20.8825534 11.6792349,20 L11.9559378,20.6133576 C12.7984133,22.4823944 14.2576736,25.7110404 14.387523,26.0160154 C14.5683847,26.4368469 14.9084665,26.6804861 15.3212022,26.6804861 C15.6365508,26.6804861 15.902433,26.5356656 16.0322824,26.4504771 C16.4403806,26.182985 17.2086564,25.5372558 17.8037997,25.0210132 L16.9288618,34.2452294 L18.0434028,34.9539982 L9.19199995,34.9676284 C8.78081008,34.1140391 8.16866277,33.0270332 7.79457275,32.6079055 Z M31.5850283,35 C31.0478492,33.9965695 30.4069497,33.025729 30.0292214,32.6363636 C29.7830789,32.3859348 29.4007065,32.3945111 29.1638523,32.6638079 C28.8155373,33.0600343 28.2117914,34.0445969 27.7705925,34.974271 L18.9930556,34.9879931 L20.1076634,34.2744425 L19.2237175,25.0343053 C19.8119827,25.5454545 20.5473143,26.1663808 20.9436193,26.4271012 C21.0736569,26.5128645 21.3399243,26.6586621 21.6557299,26.6586621 C22.0690636,26.6586621 22.4096383,26.4133791 22.590762,25.9879931 C22.6743576,25.7941681 23.310613,24.4082333 23.9793777,22.9502573 C24.4855954,21.8490566 25.0088419,20.7101201 25.3308397,20 C27.5167096,20.8765009 30.3666999,22.0068611 31.5509708,22.432247 C32.2754659,23.6106346 35.4846077,30.464837 36.0573923,34.8490566 C36.0635846,34.897084 36.072873,34.9348199 36.0868056,34.974271 L31.5850283,35 Z" id="Shape"></path>
                    </g>
                </g>
            </g>
        </g>
    </g>
</svg>