<?xml version="1.0" encoding="UTF-8"?>
<svg width="33px" height="35px" viewBox="0 0 33 35" version="1.1" xmlns="http://www.w3.org/2000/svg" xmlns:xlink="http://www.w3.org/1999/xlink">
    <!-- Generator: Sketch 47.1 (45422) - http://www.bohemiancoding.com/sketch -->
    <title>Group</title>
    <desc>Created with Sketch.</desc>
    <defs></defs>
    <g id="Page-1" stroke="none" stroke-width="1" fill="none" fill-rule="evenodd">
        <g id="1920x1080" transform="translate(-376.000000, -840.000000)" fill-rule="nonzero" fill="#FFFFFF">
            <g id="icons-accordion-copy" transform="translate(372.000000, 423.000000)">
                <g id="noun_1240294_cc" transform="translate(4.000000, 417.000000)">
                    <g id="Group">
                        <path d="M20.4669082,16.9074474 L20.4669082,16.8710892 C21.769569,16.143926 22.4894605,14.7986742 22.4894605,13.1261989 C22.4894605,11.1628584 21.4610441,9.7085321 19.9869805,9.09044342 C19.33565,8.79957815 18.6500391,8.69050368 17.7930253,8.65414552 L17.7930253,6.18179079 C17.7930253,6.07271632 17.7244642,6 17.6216226,6 L16.3189617,6 C16.2161201,6 16.147559,6.07271632 16.147559,6.18179079 L16.147559,8.61778737 L14.399251,8.61778737 L14.399251,6.18179079 C14.399251,6.07271632 14.3306899,6 14.2278483,6 L12.9251874,6 C12.8223458,6 12.7537847,6.07271632 12.7537847,6.18179079 L12.7537847,8.61778737 L9.77137692,8.61778737 C9.59997417,8.61778737 9.42857143,8.76322 9.42857143,8.98136894 L9.42857143,10.7265605 C9.42857143,10.9083513 9.56569362,11.0901421 9.77137692,11.0901421 L10.4912684,11.0901421 C11.0054767,11.0901421 11.4168433,11.52644 11.4168433,12.0718124 L11.4168433,22.6883945 C11.4168433,23.2337668 11.0054767,23.6700647 10.4912684,23.6700647 L9.77137692,23.6700647 C9.59997417,23.6700647 9.42857143,23.8154973 9.42857143,24.0336463 L9.42857143,25.7424797 C9.42857143,25.9242705 9.56569362,26.1060613 9.77137692,26.1060613 L12.7537847,26.1060613 L12.7537847,28.5420579 C12.7537847,28.6511323 12.8223458,28.7238487 12.9251874,28.7238487 L14.2278483,28.7238487 C14.3306899,28.7238487 14.399251,28.6511323 14.399251,28.5420579 L14.399251,26.1060613 L16.147559,26.1060613 L16.147559,28.5420579 C16.147559,28.6511323 16.2161201,28.7238487 16.3189617,28.7238487 L17.6216226,28.7238487 C17.7244642,28.7238487 17.7930253,28.6511323 17.7930253,28.5420579 L17.7930253,26.1060613 C18.5129169,26.1060613 19.1642473,26.033345 19.8498583,25.815196 C21.6324468,25.2334655 23.1065104,23.5246321 23.1065104,21.0886355 C23.140791,19.1980113 22.2837772,17.525536 20.4669082,16.9074474 Z M14.5020927,11.2355747 L17.0388533,11.2355747 C17.6216226,11.2355747 18.1015503,11.3446492 18.4443558,11.4900818 C19.0956862,11.8536634 19.4042111,12.6171847 19.4042111,13.4897805 C19.4042111,14.8350324 18.6843196,15.7803445 17.3816588,15.7803445 L14.5020927,15.7803445 L14.5020927,11.2355747 Z M18.7186002,23.3064831 C18.3757947,23.4882739 17.9301475,23.4882739 17.5530615,23.4882739 L14.5020927,23.4882739 L14.5020927,18.3254155 L17.6559031,18.3254155 C19.1642473,18.3254155 20.0555416,19.3434439 20.0555416,20.8704866 C20.0555416,21.9612313 19.5756139,22.9429016 18.7186002,23.3064831 Z" id="Shape"></path>
                        <path d="M16.2832607,0 C7.3017569,0 0,7.74428762 0,17.270125 C0,26.7959623 7.3017569,34.54025 16.2832607,34.54025 C25.2647645,34.54025 32.5665214,26.7959623 32.5665214,17.270125 C32.5665214,7.74428762 25.2647645,0 16.2832607,0 Z M16.2832607,32.0672614 C8.57599082,32.0672614 2.33167494,25.4445021 2.33167494,17.270125 C2.33167494,9.09574783 8.57599082,2.47298858 16.2832607,2.47298858 C23.9905306,2.47298858 30.2348464,9.09574783 30.2348464,17.270125 C30.2348464,25.4445021 23.9905306,32.0672614 16.2832607,32.0672614 Z" id="Shape"></path>
                    </g>
                </g>
            </g>
        </g>
    </g>
</svg>